<svg xmlns="http://www.w3.org/2000/svg" viewBox="0 0 800 480" role="img" aria-labelledby="title desc">
  <title id="title">Sticky session failure illustration</title>
  <desc id="desc">A confused analyst beside a broken project screen and disconnected cable, indicating a missing project database or folder.</desc>
  <defs>
    <linearGradient id="bg" x1="0" x2="1" y1="0" y2="1">
      <stop offset="0" stop-color="#fff7ed"/>
      <stop offset="1" stop-color="#e0f2fe"/>
    </linearGradient>
    <linearGradient id="dark-screen" x1="0" x2="1" y1="0" y2="1">
      <stop offset="0" stop-color="#1f2937"/>
      <stop offset="1" stop-color="#020617"/>
    </linearGradient>
    <filter id="shadow" x="-20%" y="-20%" width="140%" height="150%">
      <feDropShadow dx="0" dy="14" stdDeviation="16" flood-color="#0f172a" flood-opacity=".15"/>
    </filter>
  </defs>

  <rect width="800" height="480" fill="url(#bg)"/>
  <path d="M77 384c99-68 166 15 267-30 87-39 115-116 225-82 73 23 115 75 159 103v105H77z" fill="#bae6fd" opacity=".45"/>
  <ellipse cx="400" cy="417" rx="279" ry="35" fill="#94a3b8" opacity=".32"/>

  <g filter="url(#shadow)">
    <rect x="300" y="76" width="280" height="190" rx="18" fill="#334155"/>
    <rect x="319" y="95" width="242" height="132" rx="12" fill="url(#dark-screen)"/>
    <path d="M372 146l38 38M410 146l-38 38" stroke="#fb7185" stroke-width="12" stroke-linecap="round"/>
    <path d="M451 150h54M451 178h31" stroke="#fbbf24" stroke-width="10" stroke-linecap="round"/>
    <path d="M406 266h70l15 70H391z" fill="#64748b"/>
    <rect x="356" y="332" width="164" height="17" rx="8.5" fill="#475569"/>
  </g>

  <g transform="translate(132 185)">
    <path d="M89 77c17-15 45-12 58 5 12 16 9 40-8 54-17 15-43 11-57-5-13-16-10-39 7-54z" fill="#f2c49b"/>
    <path d="M78 94c0-35 42-54 70-30 9 8 14 19 15 31-25-13-53 5-85-1z" fill="#111827"/>
    <path d="M71 150c30-21 78-17 105 11 10 10 14 24 11 38l-15 72H63l-11-72c-3-19 4-37 19-49z" fill="#7c3aed"/>
    <path d="M73 167c-25 18-43 42-51 72" fill="none" stroke="#f2c49b" stroke-width="18" stroke-linecap="round"/>
    <path d="M166 167c31 20 53 43 66 70" fill="none" stroke="#f2c49b" stroke-width="18" stroke-linecap="round"/>
    <path d="M95 267l-18 72" stroke="#111827" stroke-width="22" stroke-linecap="round"/>
    <path d="M141 268l44 64" stroke="#111827" stroke-width="22" stroke-linecap="round"/>
    <path d="M48 348h55" stroke="#ef4444" stroke-width="16" stroke-linecap="round"/>
    <path d="M184 339h56" stroke="#ef4444" stroke-width="16" stroke-linecap="round"/>
    <path d="M103 118c10 9 24 10 35 2" stroke="#7c2d12" stroke-width="5" stroke-linecap="round" fill="none"/>
    <circle cx="99" cy="101" r="4" fill="#0f172a"/>
    <circle cx="139" cy="102" r="4" fill="#0f172a"/>
  </g>

  <g filter="url(#shadow)">
    <path d="M549 301h105c13 0 23 10 23 23v57c0 13-10 23-23 23H549c-13 0-23-10-23-23v-57c0-13 10-23 23-23z" fill="#ffffff"/>
    <path d="M549 301h42l20 23h66" fill="#fdba74"/>
    <path d="M566 354h70" stroke="#f97316" stroke-width="9" stroke-linecap="round"/>
    <path d="M566 379h42" stroke="#cbd5e1" stroke-width="9" stroke-linecap="round"/>
    <path d="M646 344l29 35M675 344l-29 35" stroke="#ef4444" stroke-width="10" stroke-linecap="round"/>
  </g>

  <path d="M360 315c-57 10-101 7-132-9-25-13-45-11-60 8" fill="none" stroke="#475569" stroke-width="12" stroke-linecap="round" stroke-dasharray="2 24"/>
  <circle cx="363" cy="315" r="14" fill="#475569"/>
  <circle cx="151" cy="334" r="14" fill="#475569"/>

  <g opacity=".86">
    <path d="M619 107c-10-14 0-32 17-32h67c17 0 27 19 17 32l-32 43c-9 12-28 12-37 0z" fill="#ffffff"/>
    <path d="M654 108h32M670 89v34" stroke="#fb7185" stroke-width="8" stroke-linecap="round"/>
    <rect x="90" y="84" width="100" height="64" rx="13" fill="#ffffff"/>
    <path d="M111 111h57M111 133h30" stroke="#94a3b8" stroke-width="7" stroke-linecap="round"/>
  </g>
</svg>
